# AST/ASF file generated using VICON BodyLanguage
# -----------------------------------------------
:version 1.10
:name VICON
:units
  mass 1.0
  length 0.45
  angle deg
:documentation
   .ast/.asf automatically generated from VICON data using
   VICON BodyBuilder and BodyLanguage model FoxedUp or BRILLIANT.MOD
:root
   order TX TY TZ RX RY RZ
   axis XYZ
   position 0 0 0  
   orientation 0 0 0 
:bonedata
  begin
     id 1 
     name lhipjoint
     direction 0.690799 -0.707083 0.151096 
     length 2.54797 
     axis 0 0 0  XYZ
  end
  begin
     id 2 
     name lfemur
     direction 0.34202 -0.939693 0  
     length 7.21646  
     axis 0 0 20  XYZ
    dof rx ry rz
    limits (-160.0 20.0)
           (-70.0 70.0)
           (-60.0 70.0)
  end
  begin
     id 3 
     name ltibia
     direction 0.34202 -0.939693 0   
     length 8.16759   
     axis 0 0 20   XYZ
    dof rx
    limits (-10.0 170.0)
  end
  begin
     id 4 
     name lfoot
     direction 0.0487203 -0.133858 0.989802   
     length 1.93375   
     axis -90 7.62852e-016 20   XYZ
    dof rx rz
    limits (-45.0 90.0)
           (-70.0 20.0)
  end
  begin
     id 5 
     name ltoes
     direction 1.53453e-011 -4.21783e-011 1   
     length 0.979747   
     axis -90 7.62852e-016 20   XYZ
    dof rx
    limits (-90.0 20.0)
  end
  begin
     id 6 
     name rhipjoint
     direction -0.694693 -0.703425 0.150315   
     length 2.56122  
     axis 0 0 0  XYZ 
  end
  begin
     id 7 
     name rfemur
     direction -0.34202 -0.939693 0   
     length 7.36786   
     axis 0 0 -20   XYZ
    dof rx ry rz
    limits (-160.0 20.0)
           (-70.0 70.0)
           (-70.0 60.0)
  end
  begin
     id 8 
     name rtibia
     direction -0.34202 -0.939693 0   
     length 8.07288   
     axis 0 0 -20   XYZ
    dof rx
    limits (-10.0 170.0)
 end
 begin
     id 9 
     name rfoot
     direction -0.0428397 -0.117701 0.992125   
     length 1.88295  
     axis -90 -7.62852e-016 -20   XYZ
    dof rx rz
    limits (-45.0 90.0)
           (-20.0 70.0)
  end
  begin
     id 10 
     name rtoes
     direction -1.53456e-011 -4.2187e-011 1   
     length 0.955578   
     axis -90 -7.62852e-016 -20   XYZ
    dof rx
    limits (-90.0 20.0)
  end
  begin
     id 11 
     name lowerback
     direction 0.0288145 0.999398 -0.0193241   
     length 1.92149   
     axis 0 0 0   XYZ
    dof rx ry rz
    limits (-20.0 45.0)
           (-30.0 30.0)
           (-30.0 30.0)
  end
  begin
     id 12 
     name upperback
     direction 0.0233784 0.998099 0.0570278   
     length 1.90435   
     axis 0 0 0   XYZ
    dof rx ry rz
    limits (-20.0 45.0)
           (-30.0 30.0)
           (-30.0 30.0)
  end
  begin
     id 13 
     name thorax
     direction 0.0096694 0.997833 0.0650817   
     length 1.9111   
     axis 0 0 0   XYZ
    dof rx ry rz
    limits (-20.0 45.0)
           (-30.0 30.0)
           (-30.0 30.0)
  end
  begin
     id 14 
     name lowerneck
     direction 0.00516803 0.999916 0.0118722   
     length 1.74664   
     axis 0 0 0   XYZ
    dof rx ry rz
    limits (-20.0 45.0)
           (-30.0 30.0)
           (-30.0 30.0)
  end
  begin
     id 15 
     name upperneck
     direction -0.0510851 0.996117 -0.071696   
     length 1.68498   
     axis 0 0 0   XYZ
    dof rx ry rz
    limits (-20.0 45.0)
           (-30.0 30.0)
           (-30.0 30.0)
  end
  begin
     id 16
     name head
     direction -0.019188 0.999436 -0.0275702  
     length 1.83483  
     axis 0 0 0   XYZ
    dof rx ry rz
    limits (-20.0 45.0)
           (-30.0 30.0)
           (-30.0 30.0)
  end
  begin
     id 17 
     name lclavicle
     direction 0.967006 0.248456 -0.0562957  
     length 3.39395  
     axis 0 0 0   XYZ
    dof ry rz
    limits (-20.0 10.0)
           (0.0 20.0)
  end
  begin
     id 18 
     name lhumerus
     direction 1 -4.48962e-011 -5.62711e-019   
     length 5.24318   
     axis 180 -30 -90   XYZ
    dof rx ry rz
    limits (-60.0 90.0)
           (-90.0 90.0)
           (-90.0 90.0)
  end
  begin
     id 19
     name lradius
     direction 1 -4.48966e-011 7.90625e-027   
     length 2.98999   
     axis 180 -30 -90   XYZ
    dof rx
    limits (-10.0 170.0)
  end
  begin
     id 20
     name lwrist
     direction 1 -4.48959e-011 1.61068e-026   
     length 1.49499   
     axis -9.31229e-015 90 90   XYZ
    dof ry
    limits (-180.0 0.0)
 end
  begin
     id 21 
     name lhand
     direction 1 -4.49017e-011 3.22136e-026   
     length 0.726745   
     axis -2.0555e-014 90 90   XYZ
    dof rx rz
    limits (-90.0 90.0)
           (-45.0 45.0)
  end
  begin
     id 22 
     name lfingers
     direction 1 -4.4898e-011 6.44272e-026   
     length 0.58592   
     axis -4.11101e-014 90 90   XYZ
    dof rx
    limits (0.0 90.0)
  end
  begin
     id 23
     name lthumb
     direction 0.707107 -6.34922e-011 0.707107   
     length 0.841268   
     axis -90 45 2.85299e-015   XYZ
    dof rx rz
    limits (-45.0 45.0)
           (-45.0 45.0)
  end
  begin
     id 24 
     name rclavicle
     direction -0.972232 0.230238 0.0419005   
     length 3.40416  
     axis 0 0 0   XYZ 
    dof ry rz
    limits (-10.0 20.0)
           (-20.0 0.0)
  end
  begin
     id 25 
     name rhumerus
     direction -1 -4.48976e-011 2.48487e-027  
     length 5.37045   
     axis 180 30 90   XYZ
    dof rx ry rz
    limits (-90.0 60.0)
           (-90.0 90.0)
           (-90.0 90.0)
  end
  begin
     id 26 
     name rradius
     direction -1 -4.48942e-011 7.87951e-027   
     length 2.92792   
     axis 180 30 90   XYZ
    dof rx
    limits (-10.0 170.0)
  end
  begin
     id 27 
     name rwrist
     direction -1 -4.48969e-011 1.61068e-026   
     length 1.46396   
     axis -9.31229e-015 -90 -90   XYZ
    dof ry
    limits (-180.0 0.0)
  end
  begin
     id 28
     name rhand
     direction -1 -4.49043e-011 3.22136e-026   
     length 0.784497   
     axis -2.0555e-014 -90 -90   XYZ
    dof rx rz
    limits (-90.0 90.0)
           (-45.0 45.0)
  end
  begin
     id 29
     name rfingers
     direction -1 -4.48823e-011 6.44272e-026   
     length 0.632482   
     axis -4.11101e-014 -90 -90   XYZ
    dof rx
    limits (0.0 90.0)
  end
  begin
     id 30
     name rthumb
     direction -0.707107 -6.34923e-011 0.707107   
     length 0.908121   
     axis -90 -45 -2.85299e-015   XYZ
    dof rx rz
    limits (-45.0 45.0)
           (-45.0 45.0)
  end
:hierarchy
  begin
    root lhipjoint rhipjoint lowerback
    lhipjoint lfemur
    lfemur ltibia
    ltibia lfoot
    lfoot ltoes
    rhipjoint rfemur
    rfemur rtibia
    rtibia rfoot
    rfoot rtoes
    lowerback upperback
    upperback thorax
    thorax lowerneck lclavicle rclavicle
    lowerneck upperneck
    upperneck head
    lclavicle lhumerus
    lhumerus lradius
    lradius lwrist
    lwrist lhand lthumb
    lhand lfingers
    rclavicle rhumerus
    rhumerus rradius
    rradius rwrist
    rwrist rhand rthumb
    rhand rfingers
  end

#!OML:ASF E:\Style6\Style6.ASF
:FULLY-SPECIFIED
:DEGREES
1945
root 0.12135 16.3092 0.209986 -4.57355 5.30973 0.935801
lowerback 18.3723 3.48838 4.99499
upperback 9.72648 5.44365 3.81623
thorax 0.284962 2.83043 0.272093
lowerneck -10.167 8.46788 1.2428
upperneck 2.42543 11.873 -10.939
head 3.12485 5.53879 -2.77557
rclavicle -3.73715e-014 -7.95139e-015
rhumerus -7.72473 36.0471 -53.381
rradius 85.4306
rwrist -25.4963
rhand 6.84556 6.21932
rfingers 7.12502
rthumb 32.1287 -20.9607
lclavicle -3.73715e-014 -7.95139e-015
lhumerus -18.3134 -19.0182 43.5463
lradius 73.7207
lwrist 19.1023
lhand -1.84271 13.5315
lfingers 7.12502
lthumb 23.8242 42.0741
rfemur -24.0853 -20.7978 15.6068
rtibia 60.9052
rfoot -23.0243 1.8551
rtoes -10.5887
lfemur -23.558 10.9677 -16.5827
ltibia 58.8482
lfoot -24.4412 -3.37391
ltoes -23.7404
1946
root 0.112232 16.3089 0.214771 -4.68777 5.32364 0.889531
lowerback 18.4214 3.48283 4.89585
upperback 9.72773 5.42372 3.76352
thorax 0.255598 2.81783 0.271246
lowerneck -10.2566 8.47769 1.17721
upperneck 2.47096 11.8943 -10.8683
head 3.14567 5.5461 -2.73874
rclavicle -5.56597e-014 -1.90833e-014
rhumerus -8.26306 35.8298 -53.869
rradius 84.9439
rwrist -24.9386
rhand 6.78861 6.37143
rfingers 7.12502
rthumb 32.0745 -20.8196
lclavicle -5.56597e-014 -1.90833e-014
lhumerus -17.7824 -18.6312 43.2925
lradius 73.5277
lwrist 18.9394
lhand -1.803 13.7042
lfingers 7.12502
lthumb 23.8623 42.2419
rfemur -23.9204 -20.7396 15.6553
rtibia 60.8712
rfoot -23.0781 1.7221
rtoes -10.9813
lfemur -23.4361 10.8986 -16.4749
ltibia 58.8571
lfoot -24.4444 -3.30436
ltoes -24.008
1947
root 0.10362 16.3065 0.220938 -4.76264 5.27148 0.804196
lowerback 18.3827 3.49711 4.82948
upperback 9.74822 5.42743 3.71983
thorax 0.295177 2.81949 0.265141
lowerneck -10.4033 8.48063 1.14957
upperneck 2.54641 11.9094 -10.846
head 3.18996 5.54576 -2.71924
rclavicle -3.73715e-014 0
rhumerus -8.73184 35.6376 -54.252
rradius 84.5317
rwrist -24.4867
rhand 6.60742 6.50132
rfingers 7.12502
rthumb 31.9019 -20.7242
lclavicle -3.73715e-014 0
lhumerus -17.2376 -18.3338 43.0046
lradius 73.4361
lwrist 18.911
lhand -1.80239 14.1524
lfingers 7.12502
lthumb 23.8629 42.69
rfemur -23.8051 -20.6215 15.7701
rtibia 60.8294
rfoot -23.1061 1.6377
rtoes -10.974
lfemur -23.3609 10.9302 -16.3206
ltibia 58.8731
lfoot -24.4636 -3.33858
ltoes -24.0313
1948
root 0.0948508 16.3093 0.228503 -4.83081 5.25944 0.723752
lowerback 18.3096 3.50208 4.76758
upperback 9.76773 5.41761 3.66134
thorax 0.352818 2.81542 0.24569
lowerneck -10.5642 8.45025 1.09309
upperneck 2.66184 11.881 -10.7439
head 3.2389 5.52426 -2.6739
rclavicle -2.62396e-014 3.18055e-015
rhumerus -9.17598 35.4452 -54.623
rradius 84.1753
rwrist -24.1629
rhand 6.50141 6.39936
rfingers 7.12502
rthumb 31.801 -20.8463
lclavicle -2.62396e-014 3.18055e-015
lhumerus -16.7243 -18.0451 42.6859
lradius 73.3363
lwrist 18.7175
lhand -1.58735 14.4374
lfingers 7.12502
lthumb 24.0691 42.9479
rfemur -23.6758 -20.5301 15.8762
rtibia 60.763
rfoot -23.1225 1.56315
rtoes -10.8196
lfemur -23.2535 10.885 -16.1724
ltibia 58.8623
lfoot -24.4728 -3.46047
ltoes -23.7654
1949
root 0.0857614 16.3144 0.236212 -4.90756 5.25139 0.646963
lowerback 18.2564 3.5085 4.71024
upperback 9.76726 5.41276 3.59669
thorax 0.379933 2.81326 0.213967
lowerneck -10.6024 8.40978 1.12555
upperneck 2.70795 11.8266 -10.7441
head 3.25775 5.49391 -2.68046
rclavicle 8.74653e-015 6.36111e-015
rhumerus -9.70098 35.1693 -55.1018
rradius 83.8034
rwrist -23.7718
rhand 6.52891 6.29645
rfingers 7.12502
rthumb 31.8272 -20.944
lclavicle 8.74653e-015 6.36111e-015
lhumerus -16.2451 -17.8325 42.3747
lradius 73.2283
lwrist 18.4499
lhand -1.45125 14.59
lfingers 7.12502
lthumb 24.1996 43.0832
rfemur -23.514 -20.4314 15.9754
rtibia 60.684
rfoot -23.1146 1.57405
rtoes -10.1805
lfemur -23.1197 10.79 -16.0323
ltibia 58.8407
lfoot -24.4746 -3.61152
ltoes -23.0273
1950
root 0.0772216 16.3173 0.240767 -4.97834 5.22554 0.525305
lowerback 18.2373 3.50884 4.6826
upperback 9.7585 5.4078 3.57131
thorax 0.379753 2.81029 0.204233
lowerneck -10.5644 8.39439 1.13457
upperneck 2.63995 11.8009 -10.7942
head 3.23352 5.48326 -2.70153
rclavicle -3.4191e-014 2.8625e-014
rhumerus -10.1893 34.9643 -55.5052
rradius 83.4331
rwrist -23.4003
rhand 6.45137 6.09432
rfingers 7.12502
rthumb 31.7533 -21.1608
lclavicle -3.4191e-014 2.8625e-014
lhumerus -15.8 -17.6382 42.1125
lradius 73.1274
lwrist 18.2797
lhand -1.55272 14.4782
lfingers 7.12502
lthumb 24.1023 42.9843
rfemur -23.3876 -20.329 16.1441
rtibia 60.5992
rfoot -23.1622 1.5273
rtoes -10.0111
lfemur -23.0286 10.7249 -15.8491
ltibia 58.837
lfoot -24.4817 -3.56667
ltoes -22.8109
